<?xml version="1.0" encoding="UTF-8"?>
<!DOCTYPE svg PUBLIC "-//W3C//DTD SVG 1.1//EN" "http://www.w3.org/Graphics/SVG/1.1/DTD/svg11.dtd">
<!-- Creator: CorelDRAW 2021 (64-Bit) -->
<svg xmlns="http://www.w3.org/2000/svg" xml:space="preserve" width="210mm" height="210mm" version="1.1" style="shape-rendering:geometricPrecision; text-rendering:geometricPrecision; image-rendering:optimizeQuality; fill-rule:evenodd; clip-rule:evenodd"
viewBox="0 0 21000 21000"
 xmlns:xlink="http://www.w3.org/1999/xlink"
 xmlns:xodm="http://www.corel.com/coreldraw/odm/2003">
 <defs>
  <style type="text/css">
   <![CDATA[
    .fil0 {fill:#090909}
   ]]>
  </style>
 </defs>
 <g id="图层_x0020_1">
  <metadata id="CorelCorpID_0Corel-Layer"/>
  <g id="_1988923516336">
   <path class="fil0" d="M193971.8 190851.9c-282.4,-408.8 -665.3,-1765 -1409.6,-1765 -3015.3,0 -4994.3,708.4 -7758,703.4 474.9,-1795.6 6668.9,-6762.6 8373.5,-8201.2 1860.5,-1570.1 3394.1,-3237.8 5581.8,-4647.2 1006,-648.1 1057.7,-452.6 2018.6,-1155.9 876.3,-641.4 1184.2,-972.1 1944.7,-1582.6l8652.5 -4751.4c3182.9,-1593.1 5905,-2996.1 9271,-4133.3 5212.7,-1761 10235.9,-3249 15733,-4372.1 8294.9,-1694.7 20753,-4276.6 28916.7,-2971 905.1,144.8 1844.3,50.2 2763.2,58.4l14088.8 1431c3394,382.2 7511,1188.1 10376.2,2323.2 3157.2,1250.7 4332.1,1068.2 7795.8,2785.1 953.7,472.7 173.9,211.9 1263.5,506.8 776.6,210.2 365.1,34.6 1111.2,306 91.8,33.4 291.8,156.4 370.7,182.2l13667 5521.6 4527.1 3232.7c449.7,188.3 915.2,183.2 1400.2,363.4l7565.1 5133.6c708,540.6 1198,757.5 1733.4,1440.4 1251.5,1596.6 45.9,488.5 1763.7,1411.9 1224.2,658 4119,3634.4 4753.8,4768.7 785.3,1403.2 2004,1917.2 3041.6,2955.7l2809.4 3539.9c507.6,602.8 1036.2,998.5 1594.3,1580.8l2970.3 3377.9c670.5,859.1 681.7,914.8 1435,1740.1l4070.1 5454.1c533.3,808.2 784.9,1070.2 1342.6,1831.2 1549.5,2114.5 3741,5599.3 4682.9,8015.6 1427.9,3663.1 3075.1,6538.9 4669,10853.9 3070.8,8313.7 4814.3,16874.4 5988.6,25756.2 841.3,6363.4 1024.1,9731.3 1024.1,16258.6 -0.1,7182.6 -1890.2,21514.7 -3388.4,28357.6 -3333.5,15225.4 -4792.1,11258.3 -5865.4,15651.6 -790,3233.9 -402.4,2947.7 -1920.5,5838.4 -407.6,776.1 -544,1099 -936.9,1885.5l-7993.9 13522c-1375.8,-1008.2 -706.6,-5220.4 -706.2,-7054 0.3,-1157.8 106.2,-2706.9 -70.1,-3809.8 -474.4,-2966.3 88.3,-4406.1 72.8,-7474.9 -25.6,-5046.2 704.2,-9728.2 702.3,-14817.6 -828.6,219.6 -2015.1,984.3 -2821.4,1410.9 0.4,1073.6 -282.3,3240.4 -491.5,4447.2 -624.2,3602 -1590.6,9797.5 -1630.2,13184.3 -40.8,3492 -620.6,5025.6 -346.8,8816.2 744.8,10310.1 4162,6914.5 -3080.5,14917.8l-2965.3 2677.5c-495,497.3 -162.3,358.6 -740.3,1022.3 -677.9,778.2 -1255.9,888.7 -2126,1754.5 -5708.9,5680.9 -18896.2,14682.2 -26147.8,17591.4l-10574.3 4242.2c-16858.7,5603.3 -27868.1,5420.7 -45724.4,5420.7 -5546.3,0 -10393.5,-689.9 -15167.6,-1410.7 -8035.8,-1213.2 -15288,-3788 -22620.4,-6656.6 -1057.3,-413.6 -1978,-720.2 -3016.7,-1216.3 -2079.6,-993.2 -3711.7,-2233.5 -5612,-2853.4 -967.6,-315.6 -1965.8,-940.1 -2760.9,-1472.9 -1375.1,-921.4 -1247.6,-906 -1968.8,-2263.1l-2116.4 0.1c-1587.3,-2346.8 -920.6,-1258.6 -3251.3,-2392.5l-2174.6 -1706.3c-536,-361.6 -830.8,-403.4 -1344.5,-771.9l-10951.7 -9505.7c-1377,-1379.5 -2510.3,-2493.4 -3886.4,-3874 -4019.4,-4032.6 -9151.7,-11370.1 -11789,-16430.9 -576.7,-1106.8 -748.7,-1462.9 -1384.4,-2494.7 -564.1,-915.4 -758.8,-1694.8 -1332.4,-2546.2 -3023.1,-4488.2 -5911.8,-11746.6 -7342.3,-16997 -1725,-6331.1 -4788.9,-17170 -4867.9,-23704.2 -1.7,-1438.3 -445.2,-4144.7 -632.1,-5365.1 -1593.7,-10405.6 242.8,-22701.7 2541.4,-32584.4 421.7,-1812.9 557.9,-3212.2 1049.2,-4946.2l10118.1 -25157.2 3079.7 -4327.9c1015.4,-1537 1722.9,-1879.3 2686.5,-3309.6 1160.8,-1723.1 1871.4,-3314.4 3311.4,-4802.1l1088.8 -1731.3c997.8,-1269.2 2207.7,-2934.1 3562.7,-3842.5l-3172.5 15519.6 -3403.4 1180.6c-936.4,434.7 -588.2,241.5 -1119.4,997.6 -754.4,1073.8 -85.7,592.2 -1121,1345l289.9 421.1c121.4,-0.3 212.4,-297.4 244,-233.9 44.4,89.2 231.3,-207.6 409.7,-298.6 2121.8,-1082.3 4536.6,-1415.8 6465.2,-2702.2 -4.2,-3770.9 1356.6,-6872.4 1875.3,-9274 185.8,-860.3 -89,538.4 -10.2,-644.6 61.5,-923.7 385.4,-1393 532.4,-2148.9 358.1,-1840.2 357.8,-4826.1 1567,-6193l972.4 -792.6c3346.4,789.2 7893.1,-1805.6 8130.9,339.4 208.3,1878.5 -1244.7,7381.8 -1637.2,9329 -431.9,2142.4 -1158.9,3870 -1195.8,6199.1 1340.5,-303.5 2722.2,-961.9 4219.7,-1057.1 2892.7,-183.9 4299.4,-105.6 6633,-1480.6 1075.2,-633.6 5395.3,-1687.3 6777.1,-1688.2 2892.5,-1.9 3333.6,3770.3 4232.8,5643.7 1368.4,-495.3 70,102.8 989.1,-774.5 864.6,-825.3 75.4,-251.5 1118,-646 3117.8,-1180.1 5964.1,-1156 9537.7,-1396.8 1317.6,-88.8 1380,-370.2 3163.3,-364 3827.8,13.3 6598,-1053.7 10237.4,-1051.5 1680.7,-3169.5 5562.7,-11461.2 6349.2,-14814.8 -2323.4,-1225.8 -4957.9,-173.5 -7134.1,275.4 -2044.7,421.8 -3609.1,785.2 -5539.7,1161.2 -3949.5,769.3 -8593.3,1740.4 -13077.2,1738.1 -856.4,-1623.1 -1608.1,-2085.7 -1931.9,-4092.9 -290.3,-1800.3 552.1,-3460.5 1229.9,-4723.5 2445.4,-4.9 6907.5,-1386.6 9796.4,-1843.8 956.9,-151.5 1106,-210.4 2559.8,-260.3 1328.1,-45.6 4176.9,-1382.3 6896.3,-1922.4 4943.9,-982.1 9497,-2451.8 14605.8,-2678.2 2096.5,-93 2802,-1058.9 4939,-1058.9 2571.4,0 3880.8,2146.8 3879.3,4234.2 -3.9,5208.1 -9416.9,17014.7 -9523.1,21516.8 1222.8,-27.4 3611,-472.8 4658.8,-631.5 5186.1,-785.4 10352.2,-1475.7 15799.8,-1486.3 2196.2,-4.3 3024.8,1532.9 3879.4,2823.2 -31.8,1504.5 -204.3,1052 -331.5,2137.9 -91.5,781.4 -20.3,1974.8 -17.8,2797.6 -1873.1,901.4 -2989.6,1497.9 -5086.1,1974.6 -5989.7,1362 -8302.8,1005.2 -12989,1824.7 -2111.4,369.3 -4661.9,812.8 -6270.4,433.6 -1611.6,2430.1 -704.1,2088 -701.4,9173.8 1190.1,-571.6 2244.6,-219.6 3748.5,-837.1 4193.8,-1722.1 6545.3,-2304.4 11279.8,-3182l8177.8 -1345.6c3706.7,-570.4 2200.3,201.6 6411.6,-996.5 803.7,-228.6 1074.1,-317.3 2128.4,-342.1 -3,-4318.2 5029.4,-26122.7 6209.4,-30826.6 924.6,-3685.7 1191.1,-7961.3 5430.8,-7974.5 5104.1,-15.8 3377.3,9752.8 3179.3,12705 -83.9,1250.1 -171.6,742.7 -286.2,1477.7l-446.4 5548.4c-201.4,1819.1 -539,4478.8 -894.2,6514.5 -422.1,2418.2 -569.4,4495.3 -880,6880 -561.1,4308 -1433.5,8653.3 -2114.9,13052.2 -651.9,4208.4 -2673.2,10933.8 -8399.5,8463.3l-1086.2 -677c-54.5,-48 -126.9,-123.4 -178.4,-174.4 -3173,-3143.5 -1244.2,-8276.6 -1239.2,-12518.1 -1780,-1.7 -2164.5,365 -4230,355.2 -7473.5,-35.8 -6137.2,356 -12733.3,1376.9 -2945.6,455.9 -8167.4,1664.8 -10773.5,3336l-2951 1986.5c3.6,3617.2 352.8,6079.5 352.7,9876.6 0,1401 -131.5,3611.3 21.5,4917.1l352 4938.5c381.7,3256 1173.8,11374.5 -852.9,14003.5 -1227,1591.7 -2839.3,1890.4 -4811.6,1890.4 -2813.4,0 -5331.8,-2485.2 -7150.9,-4136.8 -483.9,-439.3 -754.6,-771.5 -1225.6,-1243.5 -847.3,-849 -1442.6,-1439.4 -2292.6,-2292.6 -1281.9,-1286.6 -3497.1,-3135.9 -3600,-5435.3 -144.5,-3225.7 2578.3,-4881.8 5450.8,-4881.9 1839.2,1.1 540.7,526.4 2824.6,0.7l-343.2 -5656c-18.7,-1549.8 -221.4,-1426 -344.9,-2477.8 -101.5,-863.3 -20.4,-2231.7 -24.3,-3150.9 -1114.2,530.6 -852,102.8 -1854,959.6 -3126.1,2672.8 -6693.9,4235.3 -11280.2,8827 -1769.1,1771.2 -4182.1,3824.9 -5557,5731.2l-2529.3 3113.2c-923,1223.8 -1691.7,2244.3 -2409.9,3589.8 -3008.3,-2025.7 -243.9,-2687.5 3950.9,-8045.1 4093.9,-5228.8 10199.7,-10673.1 15662.7,-14319.3 1257,-838.9 2332.5,-2079.5 4022.3,-1271.5 -7,-2350.9 -1.3,-4702.3 -1.3,-7053.3l-354.1 -7053.3c-1980.9,-1.4 -15818.5,2209.1 -17282.6,1763 -445.5,-299.7 -1527.3,-1411.1 -1763.7,-1410.9 -1518.7,1.5 -1435.1,703.4 -2469.1,704.8l-2190.3 -983.4c-1942.6,-973.7 -4226.2,-2946.7 -6048.2,857.8 -1473.1,3075.9 -2365.5,6158.6 -3876.6,9174.1l-1937.8 4411.8c-567.7,1024.8 -963.2,3726.1 -1509.5,5192.5 -541.1,1452.8 -1130.6,3151.9 -1670.5,4677.8l-1816.1 4886.7c4373,2318.2 8805.6,4489.5 12976.3,7131.4 1795.4,1137.4 2895.8,1235.4 2897.4,4157.4 1.1,1958.2 -3034.1,5641 -4937.6,5641 -2270.6,0 -4277.9,-1747.5 -6108.8,-2706.8l-5956.4 -3214.2c-745.1,-471.7 -1001.4,-566.1 -1812.9,-1009.9 -859.8,-470.3 -1146.1,-729.9 -1994.9,-1179.2 -1074.6,1594.9 -1692.7,3975 -2914,5551.5 -1736.2,2241.5 -3084.4,8912.1 -6257.1,8910.6 -1204.8,-0.6 -5291.2,-2545.4 -5291.7,-3527.4 -0.7,-1426.6 585.6,-1590.6 1059.1,-2469.9 490.5,-910.7 539.2,-1621.1 1195.5,-2680.6l5868.8 -11418.1c198.8,-640.7 226,-902.6 471.6,-1644.9l5982.1 -13066.5c445.5,-1031.4 4119,-11124.2 4118.5,-11400.7 -7.3,-3722.7 -8833.7,-4263.6 -10449.1,1544l-1327.2 6080.6c-351.4,1231.1 -714,1529.6 -898.5,2627.5 -380.7,2266.6 -940.7,3853.3 -1433.2,5972.2 1121.7,755.1 2009.6,1055.7 3523.2,1413.7 -169.5,2113.5 -1221.3,2336.2 -1705,3934.6 -612,2022.8 -545.2,2782.2 -1469.6,4532.4 -1501.5,-355.3 -3565.1,-1613.2 -5170.2,-2238.5 -4438.1,-1728.8 -5672.5,-1047.7 -3069.7,-8829.5l2601.8 -9391c2091.6,-8352.2 -46.9,-3179 -6704.8,-3176.9l0 2119.2c-1684,884.5 -1009.8,399.3 -1764.3,2112.4 -410.5,932.2 -842.7,1859.3 -1271.4,2961.9 -2922.4,7515.3 -4593,14839.4 -5995.7,22927.6l-857.4 7609.1c-15.7,1280.1 138,2953 -57.3,4174.3 -496.1,3103 88.6,4445.7 68.7,7831.9 -11.5,1948.9 262.9,2488.2 356.3,3876.5l1907.6 12555.2c705.4,3007.6 1855,8939.7 3140.5,11673.5 2370.9,5041.7 4145.1,10553.4 6819.1,15402.6 1030.2,1868.2 4261.5,7946.4 5766.8,9048.5l1197.7 -11148.1c1006.3,-5424 2359.1,-10557.3 3954.5,-15798.5 353.9,-1162.8 544.9,-1219.1 848.9,-2325.5 2182.9,-7945.5 10502.3,-23174.8 16126.2,-30434.4l2628.3 -3727.2c280.8,-433.2 1518.2,-2300.5 1537.3,-517.2l-5341.4 8005.9c-9492.9,14239.8 -16261.3,30179.9 -18763.4,47198.5 -374.7,2548.8 -1537,10118.3 -148.2,11996.9 447,604.5 913.9,1158.4 1392.2,1783.8l4585.9 5641.6c549.7,606.5 1005.9,996.4 1595.7,1580.2 1570.3,1554.7 3142.2,4287.2 5201.1,5028 -412.4,-5129.5 -2621.2,-7225.6 -2810.1,-21881.8 -20.1,-1562.9 -278.2,-1511 -358.2,-2491.5 -111.5,-1368.1 301.8,-1197 360.5,-2773.2 76.3,-2049.5 -242.9,-4247.8 124.9,-6224.3 702.2,-3773.7 720.3,-7394.2 1414.9,-11283.3 1248,-6987.7 2806.4,-13290.3 5390.6,-19652.6l3776.6 -8569.5c566.3,-1426.2 1368.7,-2880.9 2090.5,-4260.7 767.3,-1466.9 1612.5,-2586 2355.3,-3992.5 1094.3,255.8 1022.1,450.5 2117.8,708.2l-4348.7 8349c-263.4,618.9 -353.8,1008.1 -589.4,1528.7 -4691.9,10364.3 -7537.8,21440.9 -8797.4,32822.8 -74.5,673.6 31.2,1400.5 -43.8,2073.6l-350.5 6349.3c-172.9,1473.8 -333.4,2230.7 -333,4253.7 1.4,7766.9 916.6,20482 3558.2,27835.2 562.6,1566.1 1501.6,1956.9 2724.4,2919.8l6906 5086.7c512.3,341.1 844.4,446 1349.2,767 2332,1482.8 4888.9,3657.7 7683,4307 2.5,-2468.4 -7.7,-4938 1.7,-7406.3 9.9,-2611.6 78.6,-2571.1 -1275.5,-4368.7 -2676.8,-3553.6 -5074,-8807.6 -5074,-13973.1 0,-1573.9 1991.7,-5059.7 2703.8,-6468 4321.5,-8547.6 -453.6,-10287.9 -1966.8,-20018.4 -895,-5754.7 -723.4,-9320.8 -743.8,-15142.9 -7.9,-2237 423.7,-7918.3 2123.2,-9163 -34.2,1681.3 -752.8,3778.4 -987.4,5360.1 -1254.1,8453.5 161.9,18767.8 2618.8,26163.9 1206.9,3633.3 4520.4,10541.5 7538.3,12564.9l-2330.8 -7192.6c-4558.5,-16172.5 -203.4,-32747.8 6098.1,-47594.1 750,-1767 1757.1,-3530.3 2582.1,-5177.2 874,-1744.7 1667.3,-3332.4 2587.3,-5172.7 863.9,-1727.9 1404.5,-4164.7 3410.4,-4703.2 -929.9,1389.3 -925.8,1583.9 -1649.1,3290.4 -2513.3,5929.6 -4693.2,12559.1 -5682.8,19007.1 -262,1706.9 -262.3,2659.5 -569.2,4368.4 -579.6,3226.5 -564.8,6398.8 -564.5,9664.2 1335.1,-109.1 2134.2,-710 3520.9,-1063.5 1030.8,-262.8 2802.9,-420.3 3536.5,-1052.9l-3528.7 -702.7c1317.2,0 1508.4,-599.3 3452.7,-286.7 895.4,143.9 2662.4,417.5 3627.9,610.5 8640,1727.7 4972.2,2323.7 6809.8,-7950.1 402.2,-2249.1 1277.9,-4947.5 1275.7,-7189.9 -1824.8,-965.7 -3119,-1779.8 -4861.2,-2898.2l-3847.6 -2150.2c-1263.1,-728.4 -310.7,209 -1170.5,-945.3 1825.5,421.4 4105.3,1051.2 5649.5,1758.8 1898,869.7 3255.2,1342.4 4936.7,2474 560.5,-2435.8 1376.5,-5013.1 2156.3,-7366.4 664.5,-2005.4 1364.7,-5213.9 3246.9,-6279 1181.2,-668.4 1612.3,-1141.6 2247,-2339.5 2145.8,-4050.4 -1789.2,-1823.3 5823.7,-13223.8 375.3,-562 631.6,-987.6 980.8,-1487 2786.3,-3984.4 10526.3,-13739.7 15878.3,-15160.3 -139.7,1669 -1660.9,2050 -4517.5,4298l-12765.7 17921.5c-4111.2,8248.9 -5643.8,16640.1 -5643.8,26455.6 0,1586.5 147.3,-277.4 334.7,1428.7 66.9,609.5 17.7,1467.1 16.7,2101.4 2355.9,1564.7 4341.5,4568.1 5647.1,7054 -2118.2,-180.5 -3260.8,-2920.3 -4941.7,-3529.4 728.6,8599.5 10276.5,21821.2 17706.5,26740.1 2710.4,1794.3 6671,4196.1 10156.7,5001.8 -755.8,-1443.7 -1340.6,-2792 -1759.5,-4581.4 2944.1,1.9 2613.9,-647.8 3176,1767.8 1027.2,-697.8 1435.6,-1359.5 2371,-2217.3 4135.5,-3792 12126.5,-3890.5 17458.6,-2802.9 5476.7,1117.2 7325,2590.3 10150,3253.8 -1500.7,-2256.7 -4158.6,-4393.7 -5933.3,-6764.9 -619.9,-828.2 -1273.6,-1603 -1830.9,-2402.5l-3309.7 -5155.8c-480.8,-784.8 -2270.2,-5429.6 -3034.1,-5430.6 -1481,-1.9 116.2,-20.2 -1297.1,466.2l-4346.6 944.1 1.2 -1763.7c1354,-315.7 4607.6,-914.7 5643.9,-1405.4 -441,-1911 -1060,-4434.9 -1059.6,-6704.7l-706.8 -2.8c-358.6,1561.4 -3759.6,6734.8 -5289.7,7761.5l-0.9 2467.8c-3148.7,731.1 -4545.8,2962.8 -6794.6,4844.2 -634.1,530.5 -584.2,360.1 -1222.5,893.1 -608.3,507.9 -477.8,512.2 -1155.8,964.6l-362.8 7774.2c53.7,1523.4 252.6,1103.1 365.6,2455.1l-3174.6 -0.8c-84.6,-3828.3 -907.4,-3785.7 -373.9,-8486 123.3,-1086.5 -50.3,-1859 156.6,-3017.6 1260.2,-7055.7 2918.3,-14059.4 5111.1,-20638.2 576.9,-1730.9 1093.4,-2944.6 1672.8,-4678.2 595,-1780.2 1218.6,-3279.7 2957.2,-3743.6 671,1399.1 -788.8,4044.2 -1272.2,5782.3 -1386.2,4984.3 -4281.9,14720.3 -4368.8,19614.6 3095.8,-2095.3 4622.7,-5013.6 6700.6,-8112.1 2429.2,-3622.2 4517.8,-7399.5 6234,-11401.9l2228.8 -5530.1c-2000.2,-3807 -3186.9,-8640.6 -5573.4,-12766.9l-3596.3 -7693c-2357.2,1581.7 -3913.4,2214.3 -6269.9,-77.6 -8102.1,-7880 -531.3,-13062.9 3784.6,-8370.4 1269.3,1380.1 1790.3,3352.1 3027.9,4733.5 1199.5,1338.8 1088.2,1733.6 1920.5,3369.5l2578.9 5533.1c434.5,1062.9 279.4,760.8 810.2,1660 417.5,707.2 631.3,1099.1 959.9,1861.7l2841.5 6682.5c440.9,948.7 307.2,525.8 575.7,834.8 812.2,-3488.9 1403.2,-6974.2 1411.6,-11287.5 3.9,-2026.2 -825.5,-4620 -353.4,-5643.7 2263,607.5 2219.2,5824.5 2447.4,7781 989.8,8484.9 -3116.5,16976 -3153.6,20437.6 -33.6,3137.1 641.6,9624 2469.8,12345.7 4034.2,-942.8 9122.5,-705.5 13403.9,-705.2 1957.8,-0.2 2091,354 3877.3,352.5 -459.5,1749.2 -894.3,703.5 -4230,705.9 -2190.6,1.4 -4525.8,127.7 -6563,489.9 -6196.4,1101.9 -9544.7,-1774.6 1411.2,12774.6 537.9,714.3 774.8,864.8 1271.1,1550.5 1533.5,2118.5 4543.4,5049.1 6611,6792.8 1531.7,1291.7 2596.5,3230.7 4677.1,3790 515.4,-2220.5 922.1,-4347.2 1486.1,-6627.8 522.2,-2111.1 670.4,-4542.2 1060.8,-7052.9 1063,-6836 1331,-15277.1 1333.6,-22652.3l-910.8 -5792.1c-893.4,-4532.1 -1752.7,-8997.1 -3358.3,-13219.2 -519.9,-1367 -892.4,-962.9 -1023,-2506.1 2060.7,45.8 1952,613.2 2709.5,2229 4165.4,8886 7092.4,27198.8 5475.1,37348.6l-426.2 4864.6c-544.3,8200.3 -3337.4,18678.3 -6696.1,26108.7 -3712.3,8212.5 -8750.6,16257.9 -15253.5,22489.9 -976,935.4 -2384.2,1588.3 -3092.1,2550.7 4862.6,-413.4 12431.4,-5942.6 15616.2,-9429.2l2566.8 -3782.5c673.6,-962 158.1,-615 1218,-898.4 -542.6,2019.7 -3057.6,5219.3 -4491.5,6798.1 -5484.9,6039.3 -1652.9,-95.2 -4793.4,6494 -3898.3,8179.2 -3054.9,6962 -8978.3,10774.1 -942.1,606.4 -802.7,594.8 -2196,625.9l7404.7 -11287.5c-1094.1,258.1 -1808.2,716.6 -3027.6,1201.8l-6349.1 2117.7c-2361.2,656.9 -2317.6,754.3 -2965.6,-144.2 1434.6,-387.3 1779.1,-1393.4 3173.9,-1761.6 -158.8,-1915.5 -1729.9,-3618.7 -3174.6,-4589 -964.4,257.2 -1222.5,603.3 -2111.5,1061.7 -843.3,434.8 -1435.2,816.9 -2472.6,1054 432.6,-1194 3528.3,-1907.1 3525.9,-2820.5 -2.8,-1100.1 -1611,-2599.2 -2469.1,-3175.3 -890.2,470.8 -1331.5,702.6 -2257.2,1271.9 -790.3,486 -1523.3,982.9 -2327.6,1197.3 273.3,-1025.8 -49.3,-464.2 684.2,-1078.6 948.2,-794.3 2337.5,-1771.2 3546.5,-2096.7 -4263,-6370.7 -4877.9,572 -10580.6,709.6 628.3,-861.5 2096.6,-1383.2 3288.3,-2005.5 1403.8,-733 2257.7,-1526 3763.6,-1877.3 -364,-1371.1 -161.5,-804.6 -1404.1,-1414.4 -2775.3,-1362.1 -1892.2,-1327.6 -4820.6,126.9 -1093.3,542.9 -1952.1,785.7 -2945.9,1285.1l-5642.9 2825.6c1734.2,2579.6 2494.8,1535.1 2478.5,6353.9 -25.7,7595 -7090.7,12341 -14117.3,12341 -2088.8,0 -5389.1,-722.5 -7193.6,-1273.1 -953.8,-291 -2266.4,-831.3 -3043.8,-1188.5 -2767.5,-1271.3 -5150.1,-3369.6 -6843.3,-5854.9 -2758.9,-4049.6 -2277.8,-9987.9 -91.5,-14150.1 3015.6,-5741.3 7765.9,-4376.7 12707.2,-1642.6 3907.4,2162.1 3684.3,849.6 7439.7,1731.2 1216.3,285.6 4430.4,852.9 4430,1918.1 -0.5,1216.5 -257.7,1365.1 -350,2469.1 1620,-432.4 663.7,-664.6 1989,-1209.4 2090.1,-859.1 1313.1,1188.1 3489.4,-719.1 2055.4,-1801.2 7514.5,-3082.5 10041.9,-4774.8l2125.1 1051.3c982.7,562.4 1230.5,575.8 2205.8,1321l3429.2 3622.8c1197.8,-797.6 3401.4,-2107.6 4938.3,-2466.4 -284.6,786.3 -118.9,554.7 -798.9,963.5 -310.1,186.3 -772.7,342.7 -1178.7,586 -885.7,530.7 -1714.6,883.1 -2254.5,1625.1 711.8,1068.6 1735,2446.5 2821.1,3174.6 1792.5,-1201.4 5193.5,-3799.3 7054.7,-4232.8 -281.3,772.3 32.7,346.4 -550.9,861.3 -382.5,337.5 -507.8,325.6 -857.5,552.5 -1472.6,955.2 -3947.9,2170.8 -4940.8,3524.5l1198.5 1270.1c782,1005.8 1267.2,1881.6 2681.6,2255.1l5203.1 -4318.4c6656.1,-6658.1 6649.5,-10299.5 10669.9,-17901.7 -3245.2,-4856.8 -1991.3,-4614.8 -6966.6,-9611.9 -985.1,-989.5 -1803.1,-1992.5 -3262.7,-2381.1 2263.7,4309.2 1861.2,10198.6 -778.5,14390.6 -814.5,1293.5 -926.6,2389.3 -2748.1,2541.3 -348.7,-1506.7 -579.4,-539.3 41.9,-1694.3 309.4,-575.1 706.9,-1274.7 1023.8,-1824.9 2986.3,-5185.3 1455.8,-14464.8 -6004.7,-14469.5l-5643.7 704.1c346.3,1292.8 -197,70.3 601.5,1161.5 467.8,639.3 455.5,639 809.4,1307.6 -1872,3521.2 -3065.2,2449.4 -5995.1,1762.3 -484.4,2042.8 -1059.6,2735.2 -1059.6,5292.4 0,3677.4 2028.9,6199.3 4295.5,7696.2 5028.1,3320.8 8832.4,417.9 9813.9,416 1356.7,-2.6 124.5,-110.6 1059.5,352 -2087.7,3113.5 -12089.6,3706 -15404.7,-2936.9 -866.4,-1736.2 -1539.7,-4022.4 -1538.9,-5879.8 0.9,-1875.7 723.4,-4822.8 1417.6,-6352.7 886.3,-1953 2784.8,-5074.8 5294,-5289.1l-5574.3 -283.4c-1605.3,241.4 -3442.4,531 -4303.6,1695.7 1347.7,313.7 3444.1,506.5 4586.2,1061.6 -2569.2,1619.9 -12377.4,-1633.2 -14934.2,-3056.2 -3913.7,-2178.3 -7395.1,-4962.3 -10554.1,-8141.1l-4138.6 -5032.7c-2005.7,-2731.6 -4034.5,-5444.5 -5533.1,-8575.6 -541.6,-1131.5 -784.9,-2106.7 -1280.7,-3305.3 -672.8,-1626.2 -1655.8,-5762.7 -1649.7,-7871.3l-711 0 4.9 10929.2c1804.2,974.4 4707.6,2409.9 5288.9,4591.1 -2080.6,-555.6 -2852.5,-2967.4 -5291,-3176 365.7,1577 -163.8,2204.1 1041.3,3191 2321.1,1900.8 3221.4,2830.3 4819,5412.6 1678.5,2713.2 1522.1,3913.9 1134.1,6556.3 -1771.9,15.5 -1707.9,-176.2 -2693.4,-1469.2 -437.6,-574.1 -1021.4,-1063.6 -1567.2,-1608.3l-3463.8 -2532.4c249.8,381.8 201.6,313.6 391.6,668.7 2783.4,5203.2 25,12312.6 -2834.1,16587l-937.1 -824.8c-45.4,-51.9 -114.1,-150.3 -154.6,-198.4l-321.3 -384.3c2554.6,-3829.3 2821.8,-5127.8 2821.8,-9876.6 0,-1588.4 -970.6,-3704.3 -1687,-4662.7 -1962.5,-2625.2 -6440.7,-3034.3 -9247.7,-1686.5 908.2,3791.3 -1211.9,4224.4 -4232.8,3528.7 -677.3,2904.3 -1058.6,4167.7 -1057.7,7406.1 1.2,4406.6 4158.3,7407.4 8112.4,7407.4 1775.6,0 1578.4,-318.7 3175.3,-352.1 560.4,834.6 427.4,369.3 704.7,1410.3 -3515.7,820.1 -4816.9,1228 -8474.7,-342.4 -1630.2,-699.8 -1884,-1020.8 -3080.3,-2211.7 -4996.7,-4974.7 -3594.7,-18209.5 4147.6,-20020.9 -743.7,-1015.1 -1013.7,-544.6 -2669.6,-201.8 -3456.7,715.6 -6552.3,497 -8265.1,3729.2l-1055.5 -704.1c-750.8,1021.2 -284.3,702.8 -2117.7,705.4 -1315.3,-2475.8 890.1,-2026.6 -705.5,-3174.6 -703.9,2998.6 -1060.2,11841.2 -1060.5,15166.2 0.2,1983.7 588.2,4678.6 1195.7,6212.7 682.7,1723.8 1573.6,3695.8 1979.8,5427.5 1622.2,-135.4 994.8,-248.1 2047.4,-1126.1 948.6,-791.2 761.1,-873.3 2185.4,-987.5 -1058,1569.4 -2329.5,1387.8 -3528,3171.8 441.9,836.4 1172.3,1931.8 1411.6,2821.9 1501.2,-123.7 823.2,-81 1910,-911.6 1593.8,-1218 3270.1,-3172.2 5148.8,-3672.6 -1430.4,2102.9 -4534.4,3288.5 -6001.3,5289.7l1909.8 598c578,-986 2806.8,-865.9 4965.2,-2541.9l2649.5 -1936.2c-586.2,2222.5 -1174.6,317.3 -1764.3,2822.5 -2645.9,54.2 -2227.4,1244.1 -4232.1,1408.9l706.8 702.7c-813.7,22.6 -855.1,-94.1 -1591.2,178.8 -876.5,325 -560.9,93.9 -879.3,883.6 -1862,-437.1 -965.2,-428.9 -2821.9,0 543.8,-780.7 59.5,-439 1062.3,-705.5 -1181.4,-1598.7 -1203.2,-112.9 -3180.1,352.7 528.7,-719.2 1032.8,-918.1 1763.7,-1410.9l-2738.2 -2902.9c-1233.9,850.2 -894.8,1106 -2552.1,1492.6 810.8,-1204.9 846.3,-1096.6 2114.3,-1764.3 -964.9,-1439.5 -2496.7,-2446.6 -3452.1,-3952.3 -557.8,-879.2 -372.5,-1041 -1483.4,-1341.5 -195.6,8655.4 -9011,8314 279.6,22296.8 1974,2970.9 4561.8,5339.1 7217.2,7598.9l8587.5 6228.3c5544.8,3717.6 14642.1,7586.3 20877.9,9103.7 1857.9,452.1 4045.9,972 6044.9,1362.4 888,173.4 2375.6,567.6 3221.2,658.7 1458.8,157.1 2408.5,117.4 3577.8,303.6 4340.5,691 15047,-918.8 19717.5,-1658.9 4704.3,-745.4 9055.8,-1976.8 13326.1,-3604.5 1747.8,-666.2 2757.3,-411 4403.1,-1241.5l14678 -7895.7c3089.9,-1801.5 12853.3,-8123.9 14710.2,-11393.1 585.4,-1030.7 842.9,-1335.2 1404.7,-2474.9l2466.2 -4940.5c932.6,-1890.6 1498.2,-3112 2284.4,-5123l2181.3 -5580.1c790.4,-1928.8 1100.9,-3585.8 1785.2,-5622.4 609.8,-1815 1205.1,-4136.2 1554.5,-5853.4 454.7,-2234.8 828.5,-3810.5 1283.5,-6122.6 393.6,-2000.6 910.6,-4781.5 910.6,-6850.3 -1079.1,-251 -1356.3,-549 -2116.4,-1059.6 698.3,-1329.4 1020.1,-2074.4 1906.5,-3383.7 1614.3,-2384.4 1983.4,-6916.2 777.6,-8822.3 -1267.6,-2003.9 -3270.8,-4985.4 837.8,-5075.2 9.2,-1784.3 -308.2,-1569.8 -358.4,-3164.8 -272.7,-8654.8 -3272.1,-22788.1 -6931,-30458.2 -2380.4,-4989.7 -5271.3,-9523.9 -8840.7,-13735 -2530.5,-2985.3 -4861.9,-4583.7 -8204.5,-6610.7l-4723 -3036c-5583.6,-3432.9 -17942.1,-9304.5 -24905.2,-9310.6 186.6,-806.2 272.8,-808.5 347.9,-1765.7 3364,6.3 6486.6,870.7 9479.3,1815 4668.8,1473.1 9615.7,3509.7 13805.7,5595.5 3697.9,1841 10881.9,6037.3 14201.6,9078.1l6351.9 5288.2c723.8,655.5 1231.4,1244.3 1933.7,1946.5 2673,2673.1 4876.8,5343.6 7001.8,8519.1l2967.3 4792.1c1877.2,3230.1 3501.4,7102.5 4934.5,10585.5 1082.2,2630.1 2818.7,9079.9 2820.4,12699.5 0.4,779.2 -1597.5,2794.8 -2114.3,3177.4 -288.4,-3449.2 -1335,-7737 -2338.1,-10717.8l-3516.5 -9534.1c-694.4,-1756.9 -7842.3,-14967.3 -10725.3,-15728.3 431.5,1611.5 2497.1,4372.4 3289.4,6233.9 530.5,1246.8 882.4,2054 1344.2,3241.4 2055.9,5286.6 4629.5,12812.8 4889.5,19094.7l1259.5 11086.9c424.3,987 489,654 1416.8,1051.9 1427.1,612.1 1911,1592.2 3320.9,1970.6 809.5,-1686.5 1317.5,-7565.7 6349.2,-10230 4217.6,2833.6 1133.8,10128.5 348.6,13404.6 964.7,459.3 1168.1,174.8 2072,754.6 1027.3,659 508.6,666.6 1459.5,1367.3 2205.7,-4619.6 2821.9,-19723.8 2821.9,-25755.1 0,-11878.4 -2687.3,-24245.4 -7054.7,-34920.5 -3121.6,-7630.3 -6846.7,-14819.4 -11494.9,-21662.2 -480.7,-707.6 -479.6,-628 -914.4,-1202.6 -360.4,-476.5 -673.9,-1031 -987.4,-1481.4 -441.4,-634.2 -487.1,-567.1 -971.9,-1144.9l-1995.3 -2589.5c-2349.2,-3166.5 -5269.7,-6052.6 -8060.6,-8871.8l-15786.2 -12430.8c-12323.4,-8201.5 -26468.5,-13332.6 -41195.2,-15595.3 -4017.2,-617.3 -8428.7,-1363.8 -12418.5,-1338.4l-17286.5 355.6c-6870.1,-6.6 -19420.3,4021.5 -26106.1,7050.1 -3140.6,1422.6 -6336.1,3035.4 -9164.6,4944.4 -3743.7,2526.6 -7550,4765.1 -11030.3,7664.5 -1887.5,1572.4 -6540.5,5109.4 -7668.8,6797.4z"/>
  </g>
 </g>
</svg>
