<?xml version="1.0" encoding="UTF-8"?>
<!DOCTYPE svg PUBLIC "-//W3C//DTD SVG 1.1//EN" "http://www.w3.org/Graphics/SVG/1.1/DTD/svg11.dtd">
<!-- Creator: CorelDRAW 2021 (64-Bit) -->
<svg xmlns="http://www.w3.org/2000/svg" xml:space="preserve" width="210mm" height="210mm" version="1.1" style="shape-rendering:geometricPrecision; text-rendering:geometricPrecision; image-rendering:optimizeQuality; fill-rule:evenodd; clip-rule:evenodd"
viewBox="0 0 21000 21000"
 xmlns:xlink="http://www.w3.org/1999/xlink"
 xmlns:xodm="http://www.corel.com/coreldraw/odm/2003">
 <defs>
  <style type="text/css">
   <![CDATA[
    .fil0 {fill:#090909}
   ]]>
  </style>
 </defs>
 <g id="图层_x0020_1">
  <metadata id="CorelCorpID_0Corel-Layer"/>
  <g id="_1988923516336">
   <path class="fil0" d="M344652.5 57175.1c-524.8,401 -27.3,546.3 130.4,1202 196,815.4 -180.7,408.2 592.4,869.5 419.8,250.5 363.2,-148.6 1159.1,629.3 576.2,563.3 379.9,417.8 607.9,1156.9 624.7,2024.9 -23.3,7458.4 -23.2,10252.4 -1465,32.2 -3094.7,732.4 -4156.8,641.2 -749.9,-64.3 -3608.4,-1274.9 -3604.9,63.5 5.4,2054 2044.4,2753.9 3092.2,3964.8 1005.2,1161.6 127.7,1018.3 1881.2,1645.5 1423.3,509 1272.9,309 2432.6,1094.4 12.5,3184.6 -378.4,6683 -1058.2,9518.3 -2482.7,586.2 -4542.5,1651.9 -6747.9,2423.3 -3475.2,1215.6 -6792.9,2708.1 -10675.3,1947.7 -4384.7,-858.7 -2269,2011.4 -212.1,3394.7 -689.9,1026.2 -1058.1,1246.8 -1056.9,2466.4 1.3,1246.2 654.3,435.9 -348.1,2106.7l-3880.5 5652c59.8,-3264.7 819.1,-3662.6 369.5,-7427.2l331.2 -8092.4c839.2,-223.6 5290.8,-4250.6 5291.7,-4937.5 3.2,-2488.7 -2394,-2819.4 -4584.2,-2824.7 -3.5,-2932.1 388.7,-3523.5 55.7,-6078 -299.9,-2300.1 3047.1,-9416.5 -848,-13234.4 -505.4,-495.4 -1252.8,-1378.4 -1827.8,-1699 -1106.1,-616.6 -2468.1,-856.6 -3730.5,-853.8 -1350.9,3.3 -117,-113.6 -1058.2,351.2 334.5,1248.9 374.7,1087 1762.3,1412.4 4.4,3076.9 840.7,5687.7 215,9030.7 -397.5,2123.4 6,4040.8 -235.3,6114.4 -196.5,1688 -692.6,3692.5 -683.5,5665 11.9,2595.9 -332.6,3379.5 -2469.4,3881.2 315,-3840.3 603.9,-5343.2 -836.7,-9040.6 -937.7,-2406.9 -2987.2,-3832 -5373.7,-2462.7l-1197 1272.7c865.5,1636.7 712.2,3479.3 424.4,5362.6 -479.8,3138.8 25.5,1846.3 -1343.6,5358.4 -987.4,2533.1 -1866,3278.9 -48.4,5061.3 1074.8,1054.1 1821.5,2556.3 2652.2,3696.8 2046.9,2810.3 4739.6,210 7133.7,-431.5l-3181.2 15513.5c-237.7,2786.4 -650.7,4419.5 1506.3,6972.3l1921.7 2664c912.6,919.5 1917,1302.1 3633.3,1305.2l3806.3 -6775.1c964.4,-3264.5 3207,-6586.2 3574,-9477 141.1,-1111.1 57.4,-1366 318,-2153 872.2,-2634.8 1842.3,-3466.7 3941.9,-4875.3 5723.9,3027.2 3206.3,1166.2 8817,706.8 -445.3,1928.3 -1334,3595.4 -2405,5000.9 -1561.8,2049.5 -2811.8,4418.3 -4925.4,6007.6 -1709.9,1285.8 -5305.2,3753.8 -7481.7,3806.3 -1,1066.3 -434.3,2819.8 1056.8,2819.8 5187.5,0 6932.1,-2041.7 9251.1,-2741.7 1558.3,-470.4 372.3,373.6 1792.4,-675.8 1213.6,-896.9 1724.9,-1212.6 3065,-1873.2 3873.7,-1909.2 5333.5,-3473 6946.8,-7516.3 1257.1,-3150.5 1587.4,-3424.6 4564.6,-2581.9 3388,958.8 8218,7898 10357.2,10806.1 727,988.4 1084.4,893.5 1412.7,2114.4 -5260.7,-5 -1262.4,1927.7 370.2,3158.3 1915.9,1444 1156.3,4951 3720.8,6860.5 4319,3215.9 4961.1,1539.7 6010.6,-3091.7 1136.5,-5015.7 -1192.6,-8223.3 -4538.6,-11431.9 -819.4,-785.8 -1141.8,-785.3 -1954.3,-1573.1 -6147.6,-5960.3 -4938.5,-4654 -12481.5,-7624.1 -1299.8,-511.8 -874.7,-771.9 -2426.5,-1099.7 -1126.7,-238 -1904.6,-284.2 -2810.1,-718.6 243.7,-1038.5 516.5,-3196.3 1163.8,-3773.6 742.4,-662.1 3667,-1164.2 4832.7,-1164.2 50.4,0 5769.6,-1764.1 10934.8,-1764.1 3134.8,0 4760.2,706.3 7758.7,705.4 447.6,-670.3 704,-763.3 1064.8,-1404.3 908.4,-1613.7 815.5,-4097.6 -622.8,-5385.8 -2433.7,-2179.5 -8608.6,-2733.6 -12083.6,-2735.1 1577.1,-2341.8 5855.2,-8968.2 4470.2,-13636.8 -430.4,-1450.8 -3559.5,-3944.8 -5043.3,-3851.4 -3225.1,203 -8950.9,-424 -8949.3,3380.3 0.6,1471.4 267.9,4376.6 706.8,5291 1088.7,-289.6 1781.7,-1214.9 2824.7,-1762.3 -771.3,3257.8 -2210.2,5775.8 -3868.4,8477.6l-721.3 1044.8c4.6,-3815.9 709.9,-5700.8 709.6,-9171 -1.1,-5067.9 1606.9,-16097.1 -5352.3,-17225.2 -1476.8,-239.4 -3131.6,-378.1 -3818.8,-56 419.9,591.6 376.2,136.4 923.5,159.4l2895.7 248.6c6578.6,1063.7 5017.6,12948.1 4996.1,18989.6 -4.2,1182.6 -705.5,4241.6 -703.8,7410.1 1550.7,-421.2 4123.8,-5684.8 4590.2,-7404.5 351.7,-1296.9 789.5,-2059.9 1050.8,-3180.3l-3173.2 2116.5c-452.7,-943.6 -2248.2,-6343.6 1748.4,-7422.8l6842 -474.3c9563.5,2885.1 226.2,14827.1 -478.9,17418.1 3115.5,5.9 6273.5,431.2 9034.5,1199.4 2647.4,736.6 3252.7,930.2 3815.8,2535.4 815.3,2324.3 366.1,3255.4 -855.3,5084.2 -6569.5,12.8 -7078.5,-1561.1 -14546.7,-81.9 -1757.3,348.1 -2680.6,940.9 -4503.3,1141 -1407.4,154.6 -3524.4,530.5 -4475.6,1168 -957.6,641.9 -632,693.6 -894.3,1927.6 -195.8,921.2 -522.9,1342.6 -624.9,2546.6 1764.7,417.2 3529.5,730.3 4869.7,1482 975.8,547.3 3626,1344.9 4897.7,1805.2 2443.1,884.3 3950.2,2237.5 5833.2,4042.2 2223,2130.6 4724.1,3972.6 6716.5,6334.8 864.8,1025.3 763.7,706.4 1443.8,2083.3 1871.3,3789 -9,7168.2 -832.5,10710.9 -984.6,0.5 -1643.8,-110.2 -2209.4,-260.4 -1528.6,-405.8 -744.2,-185.4 -1770.2,-1052.7 -950.8,-803.8 -632.8,-116.3 -1324.7,-1145.5 -1936.9,-2881 -263.2,-4710.3 -4113.8,-6820.3 -1024.9,-561.6 -1049.4,-264.1 -1163.9,-1658.6l2469.8 1.7c-150.8,-1786.3 -3339.6,-4830.2 -4525.9,-6409.8l-3316.9 -4091c-4974.8,-4744.7 -3825.4,-2116.6 -7678.9,-3960.9 -112.2,1347.6 -2258.7,5720.2 -2825.7,6698.8 -1255.5,2166.9 -3274,3247 -5522.4,4353.3l-3016.1 1922.1c-1232.5,815.1 -622.4,119.8 -1877.4,592.3 -2860.6,1077.1 -3738.9,2659 -9686,2659.3l2.6 -2113.7c2865.3,-248.1 7204.3,-3841.3 9261.5,-5906.4 1887.2,-1894.4 5312.3,-6799.4 5550.7,-9616.6 -1843.6,39.7 -3705.9,1030.5 -4942.4,1025.4 -1451.6,-5.9 -3164.3,-1169.1 -4228.7,-1729.5 -1431.1,959.7 -684.1,1361.4 -2821.9,1409.6 -138.5,1697.9 -131.8,714.7 -649.3,1820.9 -1502.9,3212.7 -1156.8,5676 -3112.2,9585.6l-2371.6 5388.2c-997,1605.3 -2533.1,3237.4 -2685.2,5074.7 -1724.1,-0.3 -3017.1,-453 -3756.8,-1534.1 -1491.1,-2179.4 -3729.2,-4446.8 -3234.2,-7559.1l1975.2 -8974.2c357,-1736.7 539.2,-3065.2 818.9,-4826 1008.2,-6346.8 -171.8,-1808.7 -5676.9,-1797.9 -444.1,-657.1 -655.3,-752.5 -1057.5,-1414l-2201.6 -3090c-2190.9,-2256.1 -1382.1,-2227.5 685.9,-7237.2 868.6,-2104.1 1353.9,-6340 101.3,-8717.3l651.6 -758.5c437.4,-338.8 129,-216.5 947.4,-464.4 957.3,-290 1570.6,-188.6 2633.8,-188.1l2265.4 4790.2c967.3,2849.8 201,4709.8 203.8,7556.9 4935.2,-2605.9 2775.8,-4423.2 3667,-9385.7 383,-2132.4 -8.3,-4053.2 233.9,-6115.1 768.6,-6540.8 -22.3,-5692.2 -20.9,-9897.4 -871.9,-460.1 -1422.5,-464.8 -1760.2,-1410.3 2429.1,-2.9 3930.5,213.5 5555.1,1848.1 4334.5,4361.4 1146.1,10193 1143.4,13671.5 -0.2,276.8 543.8,824.6 289.2,2391.1l-288.8 3958.1c2493.6,-0.2 2358.7,549.8 4232.4,705.5 78.3,951.6 164.4,958.8 352,1763.7 -1234.8,1846.2 -3339,3904.9 -5290.3,4936.9l-366.7 6703.3c-0.2,1786.7 305.8,1890.6 384.1,3181.1 143.2,2363.5 -724.7,3792.4 -722.8,6345.4 1875,-1271.8 3566.7,-4488.9 4726.7,-6588.3 1147.2,-2076.1 -936.5,-1543.4 1328.5,-4295.4 -1069,-947.9 -2388.4,-1578.7 -2530.7,-3228.4 7799,11.2 4346.7,1210.8 13005.4,-1812.5 1908.2,-666.2 4931.5,-2236.9 7103.2,-2423 115.6,-1363.4 549.5,-3177.5 850.5,-4789.6 318.9,-1708.3 211.4,-3561 203.6,-5434.2l-2519.8 -1007.3c-1768.7,-605.8 -889.5,-370.7 -1967.1,-1558 -865,-953 -1537.8,-966.9 -2062.1,-1819.3 -41.7,-67.8 -72,-171.2 -110.4,-242.3 -560.3,-1038.6 -615.4,-540.9 -741.1,-2077.8 2422.6,200.6 2419.5,898.4 4960,383.1 3007.7,-610.1 2826.2,-5.3 2798.3,-3556.7 -27,-3443.1 1598,-9188.8 -2470.1,-9524.8l706.9 -1056.8c-1033.1,-250.3 -508.2,45.3 -1056.9,-706.9z"/>
  </g>
 </g>
</svg>
