<?xml version="1.0" encoding="utf-8"?>
<!-- Generator: Adobe Illustrator 26.0.1, SVG Export Plug-In . SVG Version: 6.00 Build 0)  -->
<svg version="1.1" id="图层_1" xmlns:xodm="http://www.corel.com/coreldraw/odm/2003"
	 xmlns="http://www.w3.org/2000/svg" xmlns:xlink="http://www.w3.org/1999/xlink" x="0px" y="0px" viewBox="0 0 300000.3 300000.3"
	 style="enable-background:new 0 0 595.3 595.3;" xml:space="preserve">
<style type="text/css">
	.st0{fill-rule:evenodd;clip-rule:evenodd;fill:#090909;}
</style>
 <g id="图层_x0020_1">
  <metadata id="CorelCorpID_0Corel-Layer"/>
  <g id="_1988923516336">
   <path class="fil0" d="M465284.7 55764.9c39.6,0 2326.4,464.4 2622.3,552.7 1858.1,554.8 8981.4,5663.8 10146.8,7136.9 1294.7,1636.6 1525,2829.4 2397,4655.3 -577.4,1090.2 -1106.2,1839.6 -1763,2822.6l-5415.2 580.1c-1053.9,249.1 -1926.2,23.6 -2985.8,187.6 -3153.3,487.8 -6455.6,1863 -9350.4,2993.2 -1174.2,458.4 -823.1,697.1 -2355.1,825.3 2.7,2032.3 608.6,3773.2 1412.4,5289.7 4636.9,0 9962.6,3908.5 11990.1,7760.1 2783.4,-234.3 2529,-1785.1 8121.7,-1757.4 3539.4,17.5 3614.5,-1320.4 7478.6,2033 1963.6,1704.1 2039.2,4004.2 2039.2,6429.1 -1498.4,992.2 -1340.3,1086.6 -3878.2,1057.3 -2387.5,-27.5 -11969.2,1090 -13119.5,2399.7 -1212.8,1380.8 -1160.3,7452.5 -852.7,9099.8 565.9,3030.2 215.8,6771.5 212.3,10014 6426.2,-1473.5 2491.8,-1220 9252,-1694.4 829.1,-58.1 1691.8,110.7 1984.4,91.1 723,-48.4 2441.2,-954.1 3579.8,-1213.1 0,-4728.7 -390.8,-2925.1 -1806.4,-5653.5 -1862.1,-3588.8 5324,847.9 6183,1978.4 2813.3,3702.1 6205.4,2398.6 6205.4,11078.4 0,4250.4 -5036.2,6487 -8039.8,3454.8 -810.1,-817.8 -856.5,-1245.7 -1745.8,-2134.4 -1529.2,-1528.4 -3233.9,-5482.3 -5888.2,-5324.6 -3406.6,202.4 -2945.1,-8.7 -6199,825.4 -1273.5,326.5 -1636.9,678 -3172.6,705.6l-1757.5 8122.1c-246.6,3269.8 -707.1,3190.7 -2264.5,5143.1 -338.1,423.9 -83.1,158 -381.5,676.9 -212.9,370.2 -350.9,607.3 -530.7,876.8 -5646.6,-463.3 -5901.7,-5846.3 -8955.3,-9389.9 -565.4,-656.2 -1524.4,-1032.4 -2241.6,-1638.4 -1642.7,-1387.8 -2443,-2377.9 -5382.9,-2374.2 -471.3,1769.6 -3519.1,4057.8 -4851.7,5378.2 -905.6,897.3 -1530.5,1616.8 -2278.4,2658.9 -573.3,798.9 -701.7,3248.5 -2042.4,3249 -3471.2,1.3 -4130,-1768.6 -5505.3,-4018.1 -2787.4,-4559.6 -3707.8,-7538.7 -848,-11854.9 1123.5,741.9 1770.1,1312.4 2119.1,2821.8 6394.6,-3.3 3639,484.9 10227.8,-2824.3 2113.4,-1061.5 7864.6,-3471.7 10232.2,-3524.9 -189.8,712.7 -2837.5,3203.5 -3786.6,4326.9 -447.8,530 -795.1,1137 -1146.2,1666.9 2224.3,188.2 3648.4,1423.3 4582.8,3178.7 4161.1,-7.6 5228.9,704.1 5288.2,704.1 1556.5,0 1984.8,-1751 2473.2,-2817.3 1832.8,-4001.2 1166.9,-12531.1 720.3,-16956.2 -200.4,-1985.8 -365.3,-2791.1 -4769.1,559.6l-1233.7 884.1c-4838.9,2970.3 -15869.9,10230.2 -19773.4,2464 -2645.8,-5264.1 -2656.3,-9734.7 -564.2,-15041.2 745.1,-1889.7 1547.1,-3364.6 3041.1,-4366.4 1711.7,2472.7 -2138,5358.6 -484.3,10714.3 325.2,1053.2 455.1,1074.1 482.9,2338.2 3193.4,-270.9 15597.9,-6793.7 19800.7,-8420.6l2188.9 -986.4c901.7,-572.3 36.3,8.7 586.8,-470.9 -563.1,-2407 -2243.1,-3561.8 -3960.9,-5210 -922.6,-885.3 -1483.7,-1103.3 -2476.8,-2108.7 -837.3,-847.8 -1442.3,-1576.9 -2380.7,-2205.1l755.5 -1015.6c-953.6,-1731.4 -506.6,-4737.2 1271.9,-6480.9l7854.7 -8376.5c-1842.4,-958.2 -4103.2,-1083.3 -5745.7,-2372.6l-4039 -2309.8c-721.6,-277.5 -68.3,24.1 -657.7,-401 -3663.8,-2641.9 -335,-2967 2239.4,-3467.1 2273.1,-441.5 4404.4,-1326.7 7139.3,-1325.3z"/>
  </g>
 </g>
</svg>
