<?xml version="1.0" encoding="UTF-8"?>
<!DOCTYPE svg PUBLIC "-//W3C//DTD SVG 1.1//EN" "http://www.w3.org/Graphics/SVG/1.1/DTD/svg11.dtd">
<!-- Creator: CorelDRAW 2021 (64-Bit) -->
<svg xmlns="http://www.w3.org/2000/svg" xml:space="preserve" width="210mm" height="210mm" version="1.1" style="shape-rendering:geometricPrecision; text-rendering:geometricPrecision; image-rendering:optimizeQuality; fill-rule:evenodd; clip-rule:evenodd"
viewBox="0 0 21000 21000"
 xmlns:xlink="http://www.w3.org/1999/xlink"
 xmlns:xodm="http://www.corel.com/coreldraw/odm/2003">
 <defs>
  <style type="text/css">
   <![CDATA[
    .fil0 {fill:#090909}
   ]]>
  </style>
 </defs>
 <g id="图层_x0020_1">
  <metadata id="CorelCorpID_0Corel-Layer"/>
  <g id="_1988923516336">
   <path class="fil0" d="M206378.2 99153.2c669.4,-1617.7 -713.4,-147.1 470.4,-1285.9 352,-338.6 1142.2,-698.7 1646,-833.3 959.5,1999.8 705.4,4777.2 705.4,7054.7 -2598.3,220.9 -4655.2,1908.9 -7054.6,2120.5 744.4,-1120.1 1899.8,-1870.3 2911.5,-2735.8 491,-420 1071.4,-802.1 1612.7,-1209.3 647,-486.6 1234.2,-951.3 1825,-1350 0,-2206.1 466.3,-4415.5 -1762.3,-2467.8 1039.1,-280.5 576.5,-149.3 1409.6,-706.8l-2 3175.3c-2331.4,1574.3 -5361.6,3458 -6700,5995.7l8112.9 -2821.8c0,-11740.2 -791.5,-6398.6 -4938.3,-5291 1116.5,1011.7 -212.3,1168.8 -1152,2022 -2081.6,1890 -6514.4,4367.3 -7664.9,6090.8 1094.5,2068.7 302.4,7760.2 2467.7,7760.2 1341.8,0 4786.6,-757.5 5864,-1190.2 1763.2,-708.1 2943.7,-1938.3 5069.4,-1983 6,4313.5 -294.7,8747.6 -4.6,13056.1 101.4,1505.9 358.7,711.7 358.7,1757.3l-2.5 16225.7c-1.3,779.8 289.6,788.8 705.2,1412.3 1868.5,-1248.8 3489.8,-4882.8 4585,-7059.6 532.7,-1058.6 956,-1511.6 1539,-2692.8 1104.8,-2238.9 1348.3,-3399.8 898.9,-6086.8 -345.1,-2063.1 -124.9,-16248.4 584.3,-18530.9 482.1,-1551.6 940.8,-1323.9 2656.6,-1578.3 2257.2,-334.7 4548,-775.5 6703.3,-1057.2 2318.3,-303.1 4971.3,-737.3 7374.3,-738.2 1254.5,-1873.4 1642.1,-1421.3 2821.2,-3880.1 -685.1,-1295 -1038.5,-2123.4 -2729.6,-2560.2 -3332.5,-860.7 -6450.7,-462.3 -9765.6,293.6 -2011,458.6 -4568.8,1209.2 -6200.4,1209 110.1,-1291.9 168.8,-804.2 499.2,-1972.6 320.5,-1133.6 92.9,-1440.9 264.1,-2556.2 574.9,-3745.5 7352.3,-4327.6 7352.3,-9228.4 0,-2515.3 -4209.7,-2781 -5995.1,-2823.3l-2.6 -1406.1 6582.8 -2945.1c2633.3,-1267.8 4795.9,-1641.7 7877.8,-1643.8l1.4 706.8c7.2,-9.6 691.3,-691.4 704.1,-705.5 -407.4,1712.6 -246.9,530.1 1.3,1056.9 1161.2,-2188.8 936.3,-697.7 2685,-1563 1036.2,-512.7 658.1,-1701.1 253.3,-2779.6 -1270.1,-3384 -1148.8,-2892.2 -4339.2,-4132.2 -3820.1,-1484.9 -4989.3,-467.2 -6706,-338.3 -2701.1,202.7 -5443.8,704.3 -8118.1,699.5 -575.2,-1084.7 -890.5,-2091.6 -1411.6,-3173.9 806.6,-428.6 1022.8,-437 1983.4,-838.4 5353.9,-2237.5 6420.9,-7023.6 2538.1,-8268.6 -634.9,-203.6 -1907.8,-335.4 -2680.9,-493.3 -4273.2,-873 -3242.8,-562 -7481.6,432 -9.7,-2475.1 -420,-3575.8 -2024,-5036.1 -1749.3,-1592.5 -6517.9,-3492.1 -8208.1,-961.8 694.4,333.2 1627.8,508.1 2469.2,704.1 0,2479 150.5,3117.2 -486.1,5159 -504.7,1619 -558.8,3132.2 -925.5,4717.5 687,1292.6 1104.6,2382.3 1969.4,3675.2 1005.9,1503.8 1349.1,1968.3 3675.7,1967.9 753,1420.4 1349.2,2807.3 1761.6,4583.5 -1173.9,569.1 -2742.9,961.2 -4121.4,1525l-8224.8 3413.8c-4419.2,2222.7 -17208.1,8804.4 -21162.1,8819.8 -2596.6,10.2 -3541.3,-3171.2 -5643.8,-3173.9 -1789.6,-2.3 919.7,3422.6 1254.9,4036.8 3036.3,5563.4 3536.2,6980 10956.2,5705.7 2851.8,-489.7 3478,-1838.1 5570.5,-3248.8l11263.3 -6725.9c3310.9,-1923 5890.5,-4497 9753.1,-5411.5l2.7 2821.9c-4001.1,2676.1 -9364.4,4972.7 -12791.1,8373.1 -1291.9,1281.9 -2330.9,2648.4 -3787.4,3614.3 53,2477.1 -136.7,1401.2 -275.3,2863.7 -69.1,730 626,1722.3 630.8,3489.6 2642.2,1784.1 3220.8,1913.3 6759.3,766.8 783.6,-253.8 1083.4,-454.5 1706.1,-762.7l1761.8 -1060.2c-1349.4,313.8 -2045.2,950.9 -3208.7,1376 -5932,2167.5 -6242.2,46.6 -6889.1,-2221.4 -703,-2464.9 -41.9,-886.6 -134.9,-4449.1 1796.4,-1183.5 4200.3,-4223.5 7685.1,-6423.8l8896.1 -5566.3 0.5 -3176c-3352.8,283.6 -6941.2,3329.6 -9661.3,5154.5l-9624.8 5544.1c-5960.5,3414.1 -4083,5175.8 -13165.8,5175.8 -2338.4,0 -6658.3,-7840.3 -7058.8,-9523.8 2764,227.7 3455.2,3184.5 6000.6,3174.6 4001,-15.7 19606.2,-8111.8 25040.5,-10585.5 2660.8,-1211.2 5918.8,-2492.7 8821.9,-3171.2 -172.5,-2072.6 -1261.1,-3150.5 -1411,-4938.2 -2156.4,-505.3 -2841.1,-177.7 -4029.2,-1966.7 -481.6,-725.3 -1965.7,-3229 -1967.2,-4029.8 -2.1,-1091 1411.4,-4230 1412.3,-9523.8 -935.6,-495 -1026.1,-672.6 -2471.2,-704.8 847.6,-1218.7 2249.5,-705.7 3880.7,-703.8 1584.5,1.9 5486.6,1871.4 5645.2,5641.4 157.6,1874.8 359.9,1457.5 1641.3,968.4 2436.5,-930.2 8609.4,-362.2 10113.3,1385.8 3109,3613.4 -3383,6881.5 -6116.4,7523.7 447.2,1873.6 853.8,2509.7 1767.8,3880.1 3918.3,-9.4 9138.5,-1521.1 12264.7,-980.5 3900.6,674.5 5097.8,762.4 6437.3,4148.4 515.8,1303.8 604.3,1607 347,2825.8 -1586.6,2.4 -1414.3,207.2 -2491.5,334 -1798,211.6 -3974.6,-261.1 -5510.3,485.8 -2602,1265.6 -10344.6,2542.1 -10341.9,5883.5 1037.4,496 5996.6,522.8 5996.6,2469.2 0,1762.9 -644.4,3142.2 -1686.5,3956.4l-3158.7 2485.5c-1161.2,1161.6 -2211.2,1249.7 -2505.2,3139.9 -173.6,1116.7 59.1,1418.8 -265,2555.3 -364.1,1277 -461.9,761.9 -498.8,2324.9 6246.8,-6 9743.4,-3200 16318.5,-1503.7 1683.6,434.3 1696.1,925 2378.4,2209.2 -518.1,1078.5 -112.4,915.9 -956.3,1866.3 -682.7,768.9 -919.6,774.1 -1513.5,1661 -1540.9,-1.3 -14394.7,1218.1 -16223,2467.8 -987.4,674.9 -1328.9,2515.2 -1420.2,3874.9 -113.9,1695.6 6.5,3897.5 6.5,5650.3 0,3908.1 -513.4,7408.8 -0.7,10583.1 767.4,4750.9 -3131.5,9609.1 -5402.1,13641.8 -636,1129.5 -274.2,838.9 -1301.2,1525.3 -1264.3,-2652.5 -43.6,-12791 -344.8,-16937.4 -100.5,-1383.2 -324.6,-862.8 -358.6,-2463.6l-4.1 -13048.4c-3232.7,0 -6145.7,3171.2 -11283.4,3171.2 -1207.1,0 -968.5,-624.8 -1078.4,-1743.6 -178.2,-1814 -167,-4000.3 -1036.6,-5663.2 600.5,-903.2 1222.2,-1355.6 2253.8,-1977.5 1222.5,-737 1677.3,-961.5 2778.8,-1806.4l4652.2 -3811.1c37.9,-32.4 123.5,-109.9 185.6,-164.4 -1096.9,-367.9 -920.6,-37 4.8,-706.9l352.7 709z"/>
  </g>
 </g>
</svg>


