<?xml version="1.0" encoding="UTF-8"?>
<!DOCTYPE svg PUBLIC "-//W3C//DTD SVG 1.1//EN" "http://www.w3.org/Graphics/SVG/1.1/DTD/svg11.dtd">
<!-- Creator: CorelDRAW 2021 (64-Bit) -->
<svg xmlns="http://www.w3.org/2000/svg" xml:space="preserve" width="210mm" height="210mm" version="1.1" style="shape-rendering:geometricPrecision; text-rendering:geometricPrecision; image-rendering:optimizeQuality; fill-rule:evenodd; clip-rule:evenodd"
viewBox="0 0 21000 21000"
 xmlns:xlink="http://www.w3.org/1999/xlink"
 xmlns:xodm="http://www.corel.com/coreldraw/odm/2003">
 <defs>
  <style type="text/css">
   <![CDATA[
    .fil0 {fill:#090909}
   ]]>
  </style>
 </defs>
 <g id="图层_x0020_1">
  <metadata id="CorelCorpID_0Corel-Layer"/>
  <g id="_1988923516336">
   <path class="fil0" d="M65637.5 57175.1c1011.8,-483.4 7238.7,518.1 9247.3,2040.7 2791.6,2115.9 1973.7,2753.8 1327,5359.6 -441.1,1777.2 -926.3,683.1 -1403.2,2479 2100.5,168.9 1926.4,577.4 3178,1406.1l-3.6 2824.6c-1421.5,328.4 -1800.9,914 -3528.5,1057.5l354.1 4585.6c0,5178.5 -3757.3,3619.8 3527.3,5286.9 291.9,1258.2 706.2,3088.6 703.4,4591.7l-2467 1054.5c-2859.3,1906.9 -5481.8,1728.6 -7760.2,2820.7 241.8,897.8 1916.4,2520.8 2820.5,4235.6 1468.4,-345.2 3982.4,-1622.5 5336.7,-1680.8 971.3,-41.7 5129.7,934.2 5950.1,1327.4 686.2,685.5 710.7,2375.9 707.2,3528 -1.9,522.6 -757.9,1551.1 -1055.1,2116.4 -2495.9,0.9 -3349.4,403.3 -5436.2,918 -2345.8,578.6 -2790.3,798.3 -4443.1,1903.9l-0.9 2821.8c3105.6,724.4 8893.2,4006 9172,7411.6 1803.5,-1218.4 4174.1,-2834.6 6221.8,-3658 1609.7,-647.3 942,176.2 2596.5,-931.7 -328.5,-1406 -377.3,-1457.9 -1049.5,-2475.8 -177.2,-268.4 -527.8,-804.6 -731,-1034.2 -425.3,-480.8 -1041,-640.7 -1040.7,-1075.5 1,-1580.5 474.4,219.7 14.7,-1750 -1062.2,-4552.2 513,-7265.8 1366.2,-11681.6 459,-2375.7 3640.8,-10156.4 5105.2,-12532.2 656.2,-1064.7 968,-1609.7 1690.1,-2543.9 740.6,-958.3 1225.8,-1726.8 1344.2,-3235.6 -2420.7,-61 -3050.3,-1606.7 -5279,-2128.5 -933.2,-218.5 -1790.8,-1135.8 -1672.8,-2145.4 77,-659.2 1197.7,-89.7 4408.5,-2154.7 3801.3,-2444.9 7697.8,-3097.1 12069.8,-3098.1 2985.8,-0.7 3753,1397.9 4936.2,3174.7 5.8,2433.3 -171.2,2217.3 707.6,3880.1l-727 1398.1c-1020.5,-264.5 -554.7,-132.1 -1389.4,-691.2l-396.1 1395.7c-12177.5,382.8 -5696.3,2240.7 -10623.5,7336.5 -3309.4,3422.6 -3803.7,8633.8 -4853.4,13135.9l9751.9 -5767.9c4108.6,-1973.7 11747.6,-2697.7 16703.1,-2697.7 2760,0 4978,1427.2 7056,2824.6 -2.5,1538.6 -178.3,5635.8 -2117.7,5639.6 -2338.9,4.6 -4024.2,-2589.6 -7265.7,-1978.9 -3130,589.8 -5804.9,438.1 -8253.2,1628.9 32.6,1737.6 527.6,1996.5 1012.5,3218.3 933.8,2353.3 1139.7,4736.6 1594.6,7223 65.5,357.7 242.5,1347.3 350.4,1766.3 1061,4118.8 545.6,8159.2 -206.9,12059.3l-3691.8 12181.9c-794.4,1896.5 -1831,2246.6 -3200.3,3501.5 -3617.5,3315.1 -8724.6,5211.1 -13145.2,7314.6 155.2,-1814.9 3289.7,-5114.5 4446.4,-6841.4l4136.7 -7152.7c1559.9,-2711.6 2720.3,-4659.8 3485.1,-7801.7 493.7,-2028 1689.7,-7267.5 1689.7,-9597.5 0,-2778.1 -654.5,-11481.9 -1412.3,-13049.7 -1294.8,346.5 -2428,1367.9 -3431.5,2210.4 -1151.5,966.9 -2021.2,1510.8 -2844.8,2797.7 -1606.6,2510.1 -1923.4,985.7 -3254,2389.5 -1923,2028.7 -152.6,7525.7 -2001.2,9639.4 -338,386.5 -1021.2,1054.2 -1415.9,1405.5 -713.9,635.6 -4757.8,1949.9 -6098.5,2722 -1954,1125.2 -3350.2,3223.5 -5644,2111.8 -527.2,2196 -1909.4,225.8 -2912.5,-612.9 -1275.5,-1066.3 -2575.9,-2692.4 -3311.3,-4447.6 -421.4,-1005.7 -585.6,-2341.7 -830.9,-3401l-705.5 -1.4c-2,4126.6 1.9,4089.5 -728.8,7738.3 -1143.5,5709.5 -3068.4,6082 -4919,9547 -5247.6,-8.6 -2664.4,-544.7 -4573.3,-4947.1 -646.8,-1491.6 -1727.3,-3621.4 -1771.8,-5640.4 -1195.2,-271.2 -2863.7,-918.5 -3880.1,-1406.8 0.6,1679 150.5,1462.6 -465.1,2709.6 -1045.8,2118.8 29.5,2832.6 -432.1,5197.6 -340.1,1742.7 -89.5,1165.7 -867.8,2318 -2937.7,-230.7 -6162.3,-6252.6 -2687.5,-11857.5l923.1 -1191.6 2.9 2825.3c4636.8,-3120.6 2929.4,-965.4 7127,-73.8 2013.7,427.7 2240.7,1087 4156.9,1130.6 416.6,-1539.8 1053.4,-2328.9 1073,-4220.5 19.4,-1876.9 -14.7,-3775 -9.3,-5656 -4208.4,977 -11025.4,6894.9 -14959.8,1552.6 -1080.2,-1466.7 -4708.8,-6168.8 -915.3,-6491.6 -2.6,1770.9 8.6,1431.2 704.8,2469.8 2662.2,-620.2 4969.8,-2034.6 7515.6,-3066.2 2580.9,-1045.8 5143,-2697.5 7651.9,-3283 -1529.6,-6538.9 -1732.8,-3878.5 -7054.6,-3880.9 -2827,-1.2 -5554.7,-5279.2 -5644.5,-6347.7 370.3,30.2 5903.9,2248.6 5997.2,-1764.3l4177.3 -406.9c3138.3,-502.7 5002.4,-5648.2 4991,-8762.8 -3803.6,302.3 -5283.2,4458 -5288.6,7758.8l-4232.4 -0.6c57.7,-2521.9 1546.6,-6022.4 2469.1,-7761 -1814.2,-1216.8 -3024.2,-3143.5 -3527.3,-5289.6 2896.3,1937.7 4140.2,768.4 7268.6,-491.3 1535,-618.2 3863.4,-1397.1 4724.3,-2683.3 -654.2,-889.2 -449.1,-677.8 -1711,-1111.3 -821.4,-282.2 -1427,-561.5 -2522.5,-653 1137.9,-1675.5 1895.5,-1574.8 2277.8,-4440.7 293.4,-2199.8 -1349.5,-2989.4 -2277.1,-4377z"/>
  </g>
 </g>
</svg>
